<svg width="118" height="43" viewBox="0 0 118 43" fill="none" xmlns="http://www.w3.org/2000/svg">
<rect width="118" height="43" rx="6" fill="#0078D6"/>
<path d="M13.8364 19H12.7319L12.5669 13.8267L12.4971 11.8398L12.1099 12.9951L10.8848 16.2959H10.104L8.93604 13.1221L8.54883 11.8398L8.52344 13.9155L8.37744 19H7.31104L7.71729 10.7036H9.05664L10.1738 13.8267L10.5356 14.8804L10.8848 13.8267L12.0591 10.7036H13.4365L13.8364 19ZM19.2573 19L19.2319 18.1431C18.8849 18.4858 18.5316 18.7334 18.1719 18.8857C17.8164 19.0381 17.4419 19.1143 17.0483 19.1143C16.6844 19.1143 16.3734 19.0677 16.1152 18.9746C15.8571 18.8815 15.6434 18.7546 15.4741 18.5938C15.3091 18.4287 15.1864 18.2362 15.106 18.0161C15.0298 17.7961 14.9917 17.557 14.9917 17.2988C14.9917 16.6598 15.2287 16.1605 15.7026 15.8008C16.1808 15.4368 16.8854 15.2549 17.8164 15.2549H19.1367V14.6963C19.1367 14.3197 19.0161 14.0192 18.7749 13.7949C18.5337 13.5664 18.1655 13.4521 17.6704 13.4521C17.3107 13.4521 16.9552 13.4924 16.604 13.5728C16.257 13.6532 15.8973 13.7674 15.5249 13.9155V12.9189C15.6646 12.8682 15.819 12.8195 15.9883 12.7729C16.1618 12.7222 16.3438 12.6777 16.5342 12.6396C16.7246 12.6016 16.9235 12.5719 17.1309 12.5508C17.3382 12.5254 17.5477 12.5127 17.7593 12.5127C18.1444 12.5127 18.4914 12.555 18.8003 12.6396C19.1092 12.7243 19.3695 12.8534 19.5811 13.0269C19.7969 13.2004 19.9619 13.4183 20.0762 13.6807C20.1904 13.943 20.2476 14.252 20.2476 14.6074V19H19.2573ZM19.1367 16.0991H17.7339C17.4588 16.0991 17.2218 16.1266 17.0229 16.1816C16.8241 16.2367 16.6611 16.3149 16.5342 16.4165C16.4072 16.5181 16.312 16.6408 16.2485 16.7847C16.1893 16.9243 16.1597 17.083 16.1597 17.2607C16.1597 17.3835 16.1787 17.502 16.2168 17.6162C16.2549 17.7262 16.3162 17.8257 16.4009 17.9146C16.4855 17.9992 16.5955 18.0669 16.731 18.1177C16.8664 18.1685 17.0314 18.1938 17.2261 18.1938C17.48 18.1938 17.7699 18.1177 18.0957 17.9653C18.4258 17.8088 18.7728 17.5633 19.1367 17.229V16.0991ZM22.3105 12.627H23.2944L23.3389 13.6553C23.5251 13.4352 23.7049 13.2533 23.8784 13.1094C24.0519 12.9613 24.2212 12.8428 24.3862 12.7539C24.5555 12.665 24.7269 12.6037 24.9004 12.5698C25.0739 12.5317 25.2537 12.5127 25.4399 12.5127C26.0959 12.5127 26.591 12.7074 26.9253 13.0967C27.2638 13.4818 27.4331 14.0636 27.4331 14.8423V19H26.3286V14.9312C26.3286 14.4318 26.2355 14.0636 26.0493 13.8267C25.8631 13.5854 25.5859 13.4648 25.2178 13.4648C25.0824 13.4648 24.9491 13.486 24.8179 13.5283C24.6909 13.5664 24.5576 13.6362 24.418 13.7378C24.2783 13.8351 24.126 13.9684 23.9609 14.1377C23.8001 14.307 23.6182 14.5186 23.415 14.7725V19H22.3105V12.627ZM29.1343 15.9468C29.1343 15.4051 29.2083 14.9248 29.3564 14.5059C29.5046 14.0827 29.714 13.7272 29.9849 13.4395C30.2599 13.1475 30.5879 12.9274 30.9688 12.7793C31.3538 12.627 31.7812 12.5508 32.251 12.5508C32.4541 12.5508 32.653 12.5635 32.8477 12.5889C33.0465 12.6143 33.2412 12.6545 33.4316 12.7095V10.0308H34.5425V19H33.5522L33.5142 17.7939C33.2052 18.2425 32.8709 18.5747 32.5112 18.7905C32.1515 19.0063 31.7622 19.1143 31.3433 19.1143C30.9793 19.1143 30.6577 19.0381 30.3784 18.8857C30.1034 18.7334 29.8727 18.5197 29.6865 18.2446C29.5046 17.9653 29.367 17.631 29.2739 17.2417C29.1808 16.8524 29.1343 16.4207 29.1343 15.9468ZM30.2642 15.877C30.2642 16.6471 30.3763 17.2227 30.6006 17.6035C30.8291 17.9801 31.1507 18.1685 31.5654 18.1685C31.8447 18.1685 32.1388 18.0436 32.4478 17.7939C32.7609 17.5443 33.0889 17.174 33.4316 16.6831V13.7251C33.2497 13.6405 33.0487 13.577 32.8286 13.5347C32.6086 13.4881 32.3906 13.4648 32.1748 13.4648C31.5739 13.4648 31.1042 13.6595 30.7656 14.0488C30.4313 14.4382 30.2642 15.0475 30.2642 15.877ZM41.9883 15.4771C41.9883 15.6336 41.9862 15.7648 41.9819 15.8706C41.9777 15.9764 41.9714 16.0758 41.9629 16.1689H37.4878C37.4878 16.8206 37.6698 17.3221 38.0337 17.6733C38.3976 18.0203 38.9224 18.1938 39.6079 18.1938C39.7941 18.1938 39.9803 18.1875 40.1665 18.1748C40.3527 18.1579 40.5326 18.1367 40.7061 18.1113C40.8796 18.0859 41.0446 18.0584 41.2012 18.0288C41.362 17.995 41.5101 17.959 41.6455 17.9209V18.8286C41.3451 18.9132 41.0044 18.981 40.6235 19.0317C40.2469 19.0868 39.8555 19.1143 39.4492 19.1143C38.9033 19.1143 38.4336 19.0402 38.04 18.8921C37.6465 18.744 37.3228 18.5303 37.0688 18.251C36.8192 17.9674 36.633 17.6226 36.5103 17.2163C36.3918 16.8058 36.3325 16.3424 36.3325 15.8262C36.3325 15.3776 36.396 14.9544 36.5229 14.5566C36.6541 14.1546 36.8424 13.8034 37.0879 13.5029C37.3376 13.1982 37.6423 12.957 38.002 12.7793C38.3617 12.6016 38.77 12.5127 39.2271 12.5127C39.6714 12.5127 40.0649 12.5825 40.4077 12.7222C40.7505 12.8618 41.0382 13.0607 41.271 13.3188C41.508 13.5728 41.6857 13.8838 41.8042 14.252C41.9269 14.6159 41.9883 15.0243 41.9883 15.4771ZM40.8394 15.3184C40.8521 15.0348 40.8245 14.7767 40.7568 14.5439C40.6891 14.307 40.5833 14.1038 40.4395 13.9346C40.2998 13.7653 40.1242 13.6341 39.9126 13.541C39.701 13.4437 39.4556 13.395 39.1763 13.395C38.9351 13.395 38.715 13.4416 38.5161 13.5347C38.3172 13.6278 38.1458 13.759 38.002 13.9282C37.8581 14.0975 37.7417 14.3006 37.6528 14.5376C37.564 14.7746 37.509 15.0348 37.4878 15.3184H40.8394ZM45.9238 10.9385H44.0386V10.0308H47.041V18.0796H48.939V19H43.8291V18.0796H45.9238V10.9385ZM56.3467 15.6992C56.3467 16.2282 56.2726 16.7021 56.1245 17.1211C55.9806 17.5358 55.7733 17.8892 55.5024 18.1812C55.2358 18.4689 54.91 18.6911 54.5249 18.8477C54.1398 19 53.7061 19.0762 53.2236 19.0762C52.847 19.0762 52.4619 19.0402 52.0684 18.9683C51.6748 18.8963 51.2855 18.7821 50.9004 18.6255V10.0308H52.0049V12.5L51.9541 13.6807C52.2715 13.2533 52.61 12.9528 52.9697 12.7793C53.3337 12.6016 53.723 12.5127 54.1377 12.5127C54.5016 12.5127 54.8211 12.5889 55.0962 12.7412C55.3713 12.8936 55.6019 13.1094 55.7881 13.3887C55.9743 13.6637 56.1139 13.998 56.207 14.3916C56.3001 14.7809 56.3467 15.2168 56.3467 15.6992ZM55.2168 15.75C55.2168 15.4157 55.1914 15.1089 55.1406 14.8296C55.0941 14.5503 55.0179 14.3112 54.9121 14.1123C54.8063 13.9134 54.6709 13.759 54.5059 13.6489C54.3408 13.5347 54.144 13.4775 53.9155 13.4775C53.7759 13.4775 53.6341 13.5008 53.4902 13.5474C53.3464 13.5897 53.1961 13.6637 53.0396 13.7695C52.8872 13.8711 52.7243 14.0086 52.5508 14.1821C52.3815 14.3514 52.1995 14.563 52.0049 14.8169V17.9082C52.2207 17.9928 52.4408 18.0605 52.665 18.1113C52.8893 18.1579 53.103 18.1812 53.3062 18.1812C53.5601 18.1812 53.8013 18.141 54.0298 18.0605C54.2625 17.9801 54.4657 17.8468 54.6392 17.6606C54.8169 17.4702 54.9565 17.2205 55.0581 16.9116C55.1639 16.5985 55.2168 16.2113 55.2168 15.75ZM58.3081 12.627H59.3174L59.3491 13.8013C59.7257 13.3485 60.096 13.0205 60.46 12.8174C60.8281 12.6143 61.1984 12.5127 61.5708 12.5127C62.231 12.5127 62.7303 12.7264 63.0688 13.1538C63.4116 13.5812 63.5703 14.216 63.5449 15.0581H62.4277C62.4404 14.4995 62.3579 14.0954 62.1802 13.8457C62.0067 13.5918 61.7507 13.4648 61.4121 13.4648C61.264 13.4648 61.1138 13.4924 60.9614 13.5474C60.8133 13.5981 60.6589 13.6828 60.498 13.8013C60.3415 13.9155 60.1743 14.0636 59.9966 14.2456C59.8188 14.4276 59.6284 14.6476 59.4253 14.9058V19H58.3081V12.627ZM70.7432 15.7627C70.7432 16.2578 70.6733 16.7127 70.5337 17.1274C70.394 17.5379 70.193 17.8913 69.9307 18.1875C69.6683 18.4795 69.3488 18.708 68.9722 18.873C68.5955 19.0339 68.1681 19.1143 67.6899 19.1143C67.2329 19.1143 66.8224 19.0444 66.4585 18.9048C66.0988 18.7609 65.792 18.5514 65.5381 18.2764C65.2884 18.0013 65.0959 17.6606 64.9604 17.2544C64.8293 16.8481 64.7637 16.3805 64.7637 15.8516C64.7637 15.3564 64.8335 14.9058 64.9731 14.4995C65.1128 14.089 65.3138 13.7378 65.5762 13.4458C65.8385 13.1496 66.158 12.9211 66.5347 12.7603C66.9113 12.5952 67.3387 12.5127 67.8169 12.5127C68.2739 12.5127 68.6823 12.5846 69.042 12.7285C69.4059 12.8682 69.7127 13.0755 69.9624 13.3506C70.2163 13.6214 70.4089 13.96 70.54 14.3662C70.6755 14.7725 70.7432 15.238 70.7432 15.7627ZM69.6133 15.8135C69.6133 15.4199 69.5688 15.0771 69.48 14.7852C69.3953 14.4889 69.2726 14.2435 69.1118 14.0488C68.951 13.8499 68.7542 13.7018 68.5215 13.6045C68.293 13.5029 68.0369 13.4521 67.7534 13.4521C67.4233 13.4521 67.1398 13.5177 66.9028 13.6489C66.6701 13.7759 66.4775 13.9473 66.3252 14.1631C66.1771 14.3789 66.0671 14.6307 65.9951 14.9185C65.9274 15.202 65.8936 15.5003 65.8936 15.8135C65.8936 16.207 65.9359 16.5519 66.0205 16.8481C66.1094 17.1444 66.2342 17.3919 66.395 17.5908C66.5558 17.7855 66.7505 17.9336 66.979 18.0352C67.2075 18.1325 67.4657 18.1812 67.7534 18.1812C68.0835 18.1812 68.3649 18.1177 68.5977 17.9907C68.8346 17.8595 69.0272 17.686 69.1753 17.4702C69.3276 17.2544 69.4377 17.0047 69.5054 16.7212C69.5773 16.4334 69.6133 16.1309 69.6133 15.8135ZM77.478 18.9111C77.2284 18.9746 76.9702 19.019 76.7036 19.0444C76.437 19.0741 76.1662 19.0889 75.8911 19.0889C75.0913 19.0889 74.4946 18.909 74.1011 18.5493C73.7075 18.1854 73.5107 17.6289 73.5107 16.8799V13.5537H71.7271V12.627H73.5107V10.875L74.6152 10.5894V12.627H77.478V13.5537H74.6152V16.791C74.6152 17.248 74.7358 17.5908 74.9771 17.8193C75.2225 18.0436 75.5822 18.1558 76.0562 18.1558C76.2593 18.1558 76.4814 18.141 76.7227 18.1113C76.9639 18.0775 77.2157 18.0267 77.478 17.959V18.9111ZM91.6841 17.2607C91.6841 17.485 91.646 17.686 91.5698 17.8638C91.4937 18.0415 91.39 18.2002 91.2588 18.3398C91.1276 18.4753 90.9753 18.5916 90.8018 18.689C90.6283 18.7863 90.4421 18.8667 90.2432 18.9302C90.0485 18.9937 89.8475 19.0402 89.6401 19.0698C89.4328 19.0994 89.2297 19.1143 89.0308 19.1143C88.5991 19.1143 88.2013 19.0952 87.8374 19.0571C87.4777 19.019 87.1243 18.9577 86.7773 18.873V17.8574C87.1497 17.9632 87.52 18.0436 87.8882 18.0986C88.2563 18.1536 88.6224 18.1812 88.9863 18.1812C89.5153 18.1812 89.9067 18.1092 90.1606 17.9653C90.4146 17.8215 90.5415 17.6162 90.5415 17.3496C90.5415 17.2354 90.5203 17.1338 90.478 17.0449C90.4399 16.9518 90.368 16.8651 90.2622 16.7847C90.1564 16.7 89.9914 16.6133 89.7671 16.5244C89.547 16.4355 89.2445 16.334 88.8594 16.2197C88.5716 16.1351 88.305 16.0399 88.0596 15.9341C87.8184 15.8241 87.6089 15.695 87.4312 15.5469C87.2534 15.3988 87.1138 15.2253 87.0122 15.0264C86.9106 14.8275 86.8599 14.5926 86.8599 14.3218C86.8599 14.144 86.9001 13.9494 86.9805 13.7378C87.0651 13.5262 87.2069 13.3294 87.4058 13.1475C87.6047 12.9655 87.8734 12.8153 88.2119 12.6968C88.5505 12.5741 88.9736 12.5127 89.4814 12.5127C89.7311 12.5127 90.0083 12.5275 90.313 12.5571C90.6177 12.5825 90.9351 12.6291 91.2651 12.6968V13.6807C90.9181 13.596 90.5881 13.5347 90.2749 13.4966C89.966 13.4543 89.6973 13.4331 89.4688 13.4331C89.1937 13.4331 88.9609 13.4543 88.7705 13.4966C88.5843 13.5389 88.432 13.5981 88.3135 13.6743C88.1992 13.7463 88.1167 13.833 88.0659 13.9346C88.0151 14.0319 87.9897 14.1377 87.9897 14.252C87.9897 14.3662 88.0109 14.4699 88.0532 14.563C88.0998 14.6561 88.1823 14.7471 88.3008 14.8359C88.4235 14.9206 88.5928 15.0073 88.8086 15.0962C89.0244 15.1808 89.3058 15.2739 89.6528 15.3755C90.0295 15.4855 90.3468 15.6019 90.605 15.7246C90.8631 15.8431 91.0726 15.9764 91.2334 16.1245C91.3942 16.2726 91.5085 16.4398 91.5762 16.626C91.6481 16.8122 91.6841 17.0238 91.6841 17.2607ZM99.168 15.4771C99.168 15.6336 99.1659 15.7648 99.1616 15.8706C99.1574 15.9764 99.151 16.0758 99.1426 16.1689H94.6675C94.6675 16.8206 94.8494 17.3221 95.2134 17.6733C95.5773 18.0203 96.1021 18.1938 96.7876 18.1938C96.9738 18.1938 97.16 18.1875 97.3462 18.1748C97.5324 18.1579 97.7122 18.1367 97.8857 18.1113C98.0592 18.0859 98.2243 18.0584 98.3809 18.0288C98.5417 17.995 98.6898 17.959 98.8252 17.9209V18.8286C98.5247 18.9132 98.1841 18.981 97.8032 19.0317C97.4266 19.0868 97.0352 19.1143 96.6289 19.1143C96.083 19.1143 95.6133 19.0402 95.2197 18.8921C94.8262 18.744 94.5024 18.5303 94.2485 18.251C93.9989 17.9674 93.8127 17.6226 93.6899 17.2163C93.5715 16.8058 93.5122 16.3424 93.5122 15.8262C93.5122 15.3776 93.5757 14.9544 93.7026 14.5566C93.8338 14.1546 94.0221 13.8034 94.2676 13.5029C94.5173 13.1982 94.8219 12.957 95.1816 12.7793C95.5413 12.6016 95.9497 12.5127 96.4067 12.5127C96.8511 12.5127 97.2446 12.5825 97.5874 12.7222C97.9302 12.8618 98.2179 13.0607 98.4507 13.3188C98.6877 13.5728 98.8654 13.8838 98.9839 14.252C99.1066 14.6159 99.168 15.0243 99.168 15.4771ZM98.019 15.3184C98.0317 15.0348 98.0042 14.7767 97.9365 14.5439C97.8688 14.307 97.763 14.1038 97.6191 13.9346C97.4795 13.7653 97.3039 13.6341 97.0923 13.541C96.8807 13.4437 96.6353 13.395 96.356 13.395C96.1147 13.395 95.8947 13.4416 95.6958 13.5347C95.4969 13.6278 95.3255 13.759 95.1816 13.9282C95.0378 14.0975 94.9214 14.3006 94.8325 14.5376C94.7437 14.7746 94.6886 15.0348 94.6675 15.3184H98.019ZM106.068 18.9111C105.818 18.9746 105.56 19.019 105.293 19.0444C105.027 19.0741 104.756 19.0889 104.481 19.0889C103.681 19.0889 103.084 18.909 102.691 18.5493C102.297 18.1854 102.101 17.6289 102.101 16.8799V13.5537H100.317V12.627H102.101V10.875L103.205 10.5894V12.627H106.068V13.5537H103.205V16.791C103.205 17.248 103.326 17.5908 103.567 17.8193C103.812 18.0436 104.172 18.1558 104.646 18.1558C104.849 18.1558 105.071 18.141 105.312 18.1113C105.554 18.0775 105.806 18.0267 106.068 17.959V18.9111Z" fill="white"/>
<path opacity="0.4" d="M11.1055 32H10.3203L9.55859 30.3672C9.5013 30.2422 9.44271 30.1393 9.38281 30.0586C9.32292 29.9753 9.25781 29.9102 9.1875 29.8633C9.11979 29.8138 9.04427 29.7786 8.96094 29.7578C8.88021 29.737 8.78906 29.7266 8.6875 29.7266H8.35938V32H7.66406V26.8945H9.03125C9.32812 26.8945 9.58333 26.9271 9.79688 26.9922C10.0104 27.0573 10.1849 27.1484 10.3203 27.2656C10.4583 27.3828 10.5586 27.5247 10.6211 27.6914C10.6862 27.8555 10.7188 28.0378 10.7188 28.2383C10.7188 28.3971 10.6953 28.5482 10.6484 28.6914C10.6016 28.832 10.5312 28.9609 10.4375 29.0781C10.3464 29.1927 10.2318 29.293 10.0938 29.3789C9.95833 29.4622 9.80208 29.5247 9.625 29.5664C9.76823 29.6159 9.88932 29.7031 9.98828 29.8281C10.0898 29.9505 10.1927 30.1146 10.2969 30.3203L11.1055 32ZM9.99219 28.2969C9.99219 28.0234 9.90625 27.819 9.73438 27.6836C9.5651 27.5482 9.32552 27.4805 9.01562 27.4805H8.35938V29.168H8.92188C9.08594 29.168 9.23307 29.1497 9.36328 29.1133C9.49609 29.0742 9.60807 29.0182 9.69922 28.9453C9.79297 28.8698 9.86458 28.7786 9.91406 28.6719C9.96615 28.5625 9.99219 28.4375 9.99219 28.2969ZM15.5659 32H12.6636V26.8945H15.5659V27.4805H13.3589V29.0625H15.48V29.6484H13.3589V31.4062H15.5659V32ZM20.6944 32H19.7881L18.2998 28.8164L17.8702 27.793V30.3672V32H17.2217V26.8945H18.1163L19.5342 29.9102L20.0459 31.0781V28.3438V26.8945H20.6944V32ZM25.7486 29.3906C25.7486 29.6354 25.7291 29.8698 25.69 30.0938C25.6535 30.3177 25.5936 30.526 25.5103 30.7188C25.427 30.9115 25.3189 31.0872 25.1861 31.2461C25.0533 31.4023 24.8905 31.5365 24.6978 31.6484C24.5051 31.7604 24.2811 31.8477 24.0259 31.9102C23.7707 31.9701 23.4804 32 23.1548 32H22.0611V26.8945H23.3775C24.1744 26.8945 24.7681 27.1003 25.1587 27.5117C25.552 27.9206 25.7486 28.5469 25.7486 29.3906ZM25.0181 29.4414C25.0181 29.0794 24.9843 28.7734 24.9166 28.5234C24.8489 28.2734 24.746 28.0716 24.608 27.918C24.4699 27.7643 24.2968 27.6536 24.0884 27.5859C23.8801 27.5156 23.6353 27.4805 23.3541 27.4805H22.7564V31.3984H23.2759C24.4374 31.3984 25.0181 30.7461 25.0181 29.4414ZM30.2013 32H27.2989V26.8945H30.2013V27.4805H27.9942V29.0625H30.1153V29.6484H27.9942V31.4062H30.2013V32ZM35.4977 32H34.7125L33.9508 30.3672C33.8935 30.2422 33.8349 30.1393 33.775 30.0586C33.7151 29.9753 33.65 29.9102 33.5797 29.8633C33.512 29.8138 33.4365 29.7786 33.3531 29.7578C33.2724 29.737 33.1812 29.7266 33.0797 29.7266H32.7516V32H32.0562V26.8945H33.4234C33.7203 26.8945 33.9755 26.9271 34.1891 26.9922C34.4026 27.0573 34.5771 27.1484 34.7125 27.2656C34.8505 27.3828 34.9508 27.5247 35.0133 27.6914C35.0784 27.8555 35.1109 28.0378 35.1109 28.2383C35.1109 28.3971 35.0875 28.5482 35.0406 28.6914C34.9937 28.832 34.9234 28.9609 34.8297 29.0781C34.7385 29.1927 34.624 29.293 34.4859 29.3789C34.3505 29.4622 34.1943 29.5247 34.0172 29.5664C34.1604 29.6159 34.2815 29.7031 34.3805 29.8281C34.482 29.9505 34.5849 30.1146 34.6891 30.3203L35.4977 32ZM34.3844 28.2969C34.3844 28.0234 34.2984 27.819 34.1266 27.6836C33.9573 27.5482 33.7177 27.4805 33.4078 27.4805H32.7516V29.168H33.3141C33.4781 29.168 33.6253 29.1497 33.7555 29.1133C33.8883 29.0742 34.0003 29.0182 34.0914 28.9453C34.1852 28.8698 34.2568 28.7786 34.3062 28.6719C34.3583 28.5625 34.3844 28.4375 34.3844 28.2969ZM45.5084 32H44.7506L44.3952 30.8867H42.2702L41.9108 32H41.1881L42.8834 26.8945H43.8366L45.5084 32ZM44.1959 30.2656L43.3327 27.5352L42.4694 30.2656H44.1959ZM49.9963 28.457C49.9963 28.6654 49.9572 28.8724 49.8791 29.0781C49.8009 29.2812 49.6798 29.4635 49.5158 29.625C49.3517 29.7865 49.1421 29.918 48.8869 30.0195C48.6317 30.1185 48.327 30.168 47.9728 30.168H47.34V32H46.6447V26.8945H48.0822C48.3348 26.8945 48.577 26.9232 48.8088 26.9805C49.0405 27.0352 49.2436 27.125 49.4181 27.25C49.5952 27.375 49.7358 27.5365 49.84 27.7344C49.9442 27.9323 49.9963 28.1732 49.9963 28.457ZM49.2736 28.4883C49.2736 28.1602 49.1655 27.9089 48.9494 27.7344C48.7358 27.5599 48.4364 27.4727 48.0509 27.4727H47.34V29.5742H47.9884C48.3999 29.5742 48.7163 29.4844 48.9377 29.3047C49.1616 29.125 49.2736 28.8529 49.2736 28.4883ZM54.8747 28.457C54.8747 28.6654 54.8356 28.8724 54.7575 29.0781C54.6794 29.2812 54.5583 29.4635 54.3942 29.625C54.2302 29.7865 54.0205 29.918 53.7653 30.0195C53.5101 30.1185 53.2054 30.168 52.8512 30.168H52.2184V32H51.5231V26.8945H52.9606C53.2132 26.8945 53.4554 26.9232 53.6872 26.9805C53.919 27.0352 54.1221 27.125 54.2966 27.25C54.4736 27.375 54.6143 27.5365 54.7184 27.7344C54.8226 27.9323 54.8747 28.1732 54.8747 28.457ZM54.152 28.4883C54.152 28.1602 54.044 27.9089 53.8278 27.7344C53.6143 27.5599 53.3148 27.4727 52.9294 27.4727H52.2184V29.5742H52.8669C53.2783 29.5742 53.5947 29.4844 53.8161 29.3047C54.0401 29.125 54.152 28.8529 54.152 28.4883Z" fill="white"/>
</svg>
