<svg width="118" height="43" viewBox="0 0 118 43" fill="none" xmlns="http://www.w3.org/2000/svg">
<rect width="118" height="43" rx="6" fill="#0078D6"/>
<path d="M13.3159 18.689C12.6515 18.964 11.9554 19.1016 11.2275 19.1016C10.0553 19.1016 9.15397 18.7524 8.52344 18.0542C7.89714 17.3517 7.58398 16.3149 7.58398 14.9438C7.58398 14.2795 7.67074 13.6785 7.84424 13.1411C8.01774 12.6037 8.2653 12.1488 8.58691 11.7764C8.90853 11.3997 9.29785 11.1099 9.75488 10.9067C10.2119 10.7036 10.724 10.6021 11.291 10.6021C11.6761 10.6021 12.0337 10.6359 12.3638 10.7036C12.6938 10.7671 13.0112 10.8665 13.3159 11.002V12.1128C13.0155 11.9478 12.7044 11.8229 12.3828 11.7383C12.0612 11.6494 11.71 11.605 11.3291 11.605C10.9398 11.605 10.5864 11.679 10.269 11.8271C9.95589 11.971 9.68929 12.1826 9.46924 12.4619C9.24919 12.737 9.07992 13.0755 8.96143 13.4775C8.84294 13.8753 8.78369 14.3302 8.78369 14.8423C8.78369 15.9172 9.00163 16.7275 9.4375 17.2734C9.87337 17.8193 10.5124 18.0923 11.3545 18.0923C11.71 18.0923 12.0506 18.0521 12.3765 17.9717C12.7023 17.887 13.0155 17.7707 13.3159 17.6226V18.689ZM20.7109 15.7627C20.7109 16.2578 20.6411 16.7127 20.5015 17.1274C20.3618 17.5379 20.1608 17.8913 19.8984 18.1875C19.6361 18.4795 19.3166 18.708 18.9399 18.873C18.5633 19.0339 18.1359 19.1143 17.6577 19.1143C17.2007 19.1143 16.7902 19.0444 16.4263 18.9048C16.0666 18.7609 15.7598 18.5514 15.5059 18.2764C15.2562 18.0013 15.0636 17.6606 14.9282 17.2544C14.797 16.8481 14.7314 16.3805 14.7314 15.8516C14.7314 15.3564 14.8013 14.9058 14.9409 14.4995C15.0806 14.089 15.2816 13.7378 15.5439 13.4458C15.8063 13.1496 16.1258 12.9211 16.5024 12.7603C16.8791 12.5952 17.3065 12.5127 17.7847 12.5127C18.2417 12.5127 18.6501 12.5846 19.0098 12.7285C19.3737 12.8682 19.6805 13.0755 19.9302 13.3506C20.1841 13.6214 20.3766 13.96 20.5078 14.3662C20.6432 14.7725 20.7109 15.238 20.7109 15.7627ZM19.5811 15.8135C19.5811 15.4199 19.5366 15.0771 19.4478 14.7852C19.3631 14.4889 19.2404 14.2435 19.0796 14.0488C18.9188 13.8499 18.722 13.7018 18.4893 13.6045C18.2607 13.5029 18.0047 13.4521 17.7212 13.4521C17.3911 13.4521 17.1076 13.5177 16.8706 13.6489C16.6379 13.7759 16.4453 13.9473 16.293 14.1631C16.1449 14.3789 16.0348 14.6307 15.9629 14.9185C15.8952 15.202 15.8613 15.5003 15.8613 15.8135C15.8613 16.207 15.9036 16.5519 15.9883 16.8481C16.0771 17.1444 16.202 17.3919 16.3628 17.5908C16.5236 17.7855 16.7183 17.9336 16.9468 18.0352C17.1753 18.1325 17.4334 18.1812 17.7212 18.1812C18.0513 18.1812 18.3327 18.1177 18.5654 17.9907C18.8024 17.8595 18.995 17.686 19.1431 17.4702C19.2954 17.2544 19.4054 17.0047 19.4731 16.7212C19.5451 16.4334 19.5811 16.1309 19.5811 15.8135ZM26.8555 19V14.4233C26.8555 14.2244 26.847 14.0615 26.8301 13.9346C26.8174 13.8076 26.7941 13.7082 26.7603 13.6362C26.7306 13.5601 26.6904 13.5072 26.6396 13.4775C26.5931 13.4479 26.5339 13.4331 26.4619 13.4331C26.3773 13.4331 26.299 13.4585 26.2271 13.5093C26.1551 13.5601 26.0768 13.6426 25.9922 13.7568C25.9118 13.8711 25.8208 14.0234 25.7192 14.2139C25.6219 14.4001 25.5055 14.6307 25.3701 14.9058V19H24.3608V14.5439C24.3608 14.3112 24.3524 14.1229 24.3354 13.979C24.3228 13.8351 24.2995 13.723 24.2656 13.6426C24.236 13.5622 24.1958 13.5072 24.145 13.4775C24.0942 13.4479 24.0329 13.4331 23.9609 13.4331C23.8848 13.4331 23.8128 13.4543 23.7451 13.4966C23.6774 13.5389 23.6012 13.6151 23.5166 13.7251C23.4362 13.8351 23.3452 13.9854 23.2437 14.1758C23.1421 14.3662 23.0215 14.6095 22.8818 14.9058V19H21.8662V12.627H22.7104L22.7612 13.8394C22.8713 13.5981 22.9771 13.3929 23.0786 13.2236C23.1844 13.0544 23.2923 12.9189 23.4023 12.8174C23.5124 12.7116 23.6287 12.6354 23.7515 12.5889C23.8784 12.5381 24.0181 12.5127 24.1704 12.5127C24.5132 12.5127 24.7734 12.6248 24.9512 12.8491C25.1289 13.0734 25.2178 13.4204 25.2178 13.8901C25.3193 13.6701 25.4188 13.4754 25.5161 13.3062C25.6134 13.1326 25.7171 12.9888 25.8271 12.8745C25.9414 12.756 26.0662 12.6672 26.2017 12.6079C26.3371 12.5444 26.4937 12.5127 26.6714 12.5127C27.4712 12.5127 27.8711 13.1284 27.8711 14.3599V19H26.8555ZM34.9043 15.6992C34.9043 16.2663 34.8239 16.7614 34.6631 17.1846C34.5065 17.6077 34.2886 17.959 34.0093 18.2383C33.73 18.5176 33.3999 18.7271 33.019 18.8667C32.6382 19.0063 32.2256 19.0762 31.7812 19.0762C31.5781 19.0762 31.375 19.0656 31.1719 19.0444C30.973 19.0233 30.7699 18.9873 30.5625 18.9365V21.6025H29.458V12.627H30.4419L30.5117 13.6934C30.8291 13.2575 31.1676 12.9528 31.5273 12.7793C31.887 12.6016 32.2764 12.5127 32.6953 12.5127C33.0592 12.5127 33.3787 12.5889 33.6538 12.7412C33.9289 12.8936 34.1595 13.1094 34.3457 13.3887C34.5319 13.6637 34.6715 13.998 34.7646 14.3916C34.8577 14.7809 34.9043 15.2168 34.9043 15.6992ZM33.7744 15.75C33.7744 15.4157 33.749 15.1089 33.6982 14.8296C33.6517 14.5503 33.5755 14.3112 33.4697 14.1123C33.3639 13.9134 33.2285 13.759 33.0635 13.6489C32.8984 13.5347 32.7017 13.4775 32.4731 13.4775C32.3335 13.4775 32.1917 13.5008 32.0479 13.5474C31.904 13.5897 31.7537 13.6637 31.5972 13.7695C31.4448 13.8711 31.2819 14.0086 31.1084 14.1821C30.9391 14.3514 30.7572 14.563 30.5625 14.8169V17.9082C30.7656 17.9928 30.9793 18.0605 31.2036 18.1113C31.4279 18.1579 31.6479 18.1812 31.8638 18.1812C32.4604 18.1812 32.9281 17.9801 33.2666 17.5781C33.6051 17.1719 33.7744 16.5625 33.7744 15.75ZM42.1533 15.7627C42.1533 16.2578 42.0835 16.7127 41.9438 17.1274C41.8042 17.5379 41.6032 17.8913 41.3408 18.1875C41.0785 18.4795 40.759 18.708 40.3823 18.873C40.0057 19.0339 39.5783 19.1143 39.1001 19.1143C38.6431 19.1143 38.2326 19.0444 37.8687 18.9048C37.509 18.7609 37.2021 18.5514 36.9482 18.2764C36.6986 18.0013 36.506 17.6606 36.3706 17.2544C36.2394 16.8481 36.1738 16.3805 36.1738 15.8516C36.1738 15.3564 36.2437 14.9058 36.3833 14.4995C36.5229 14.089 36.724 13.7378 36.9863 13.4458C37.2487 13.1496 37.5682 12.9211 37.9448 12.7603C38.3215 12.5952 38.7489 12.5127 39.2271 12.5127C39.6841 12.5127 40.0924 12.5846 40.4521 12.7285C40.8161 12.8682 41.1229 13.0755 41.3726 13.3506C41.6265 13.6214 41.819 13.96 41.9502 14.3662C42.0856 14.7725 42.1533 15.238 42.1533 15.7627ZM41.0234 15.8135C41.0234 15.4199 40.979 15.0771 40.8901 14.7852C40.8055 14.4889 40.6828 14.2435 40.522 14.0488C40.3612 13.8499 40.1644 13.7018 39.9316 13.6045C39.7031 13.5029 39.4471 13.4521 39.1636 13.4521C38.8335 13.4521 38.55 13.5177 38.313 13.6489C38.0802 13.7759 37.8877 13.9473 37.7354 14.1631C37.5872 14.3789 37.4772 14.6307 37.4053 14.9185C37.3376 15.202 37.3037 15.5003 37.3037 15.8135C37.3037 16.207 37.346 16.5519 37.4307 16.8481C37.5195 17.1444 37.6444 17.3919 37.8052 17.5908C37.966 17.7855 38.1606 17.9336 38.3892 18.0352C38.6177 18.1325 38.8758 18.1812 39.1636 18.1812C39.4937 18.1812 39.7751 18.1177 40.0078 17.9907C40.2448 17.8595 40.4373 17.686 40.5854 17.4702C40.7378 17.2544 40.8478 17.0047 40.9155 16.7212C40.9875 16.4334 41.0234 16.1309 41.0234 15.8135ZM48.7993 17.2607C48.7993 17.485 48.7612 17.686 48.6851 17.8638C48.6089 18.0415 48.5052 18.2002 48.374 18.3398C48.2428 18.4753 48.0905 18.5916 47.917 18.689C47.7435 18.7863 47.5573 18.8667 47.3584 18.9302C47.1637 18.9937 46.9627 19.0402 46.7554 19.0698C46.548 19.0994 46.3449 19.1143 46.146 19.1143C45.7144 19.1143 45.3166 19.0952 44.9526 19.0571C44.5929 19.019 44.2396 18.9577 43.8926 18.873V17.8574C44.265 17.9632 44.6353 18.0436 45.0034 18.0986C45.3716 18.1536 45.7376 18.1812 46.1016 18.1812C46.6305 18.1812 47.022 18.1092 47.2759 17.9653C47.5298 17.8215 47.6567 17.6162 47.6567 17.3496C47.6567 17.2354 47.6356 17.1338 47.5933 17.0449C47.5552 16.9518 47.4832 16.8651 47.3774 16.7847C47.2716 16.7 47.1066 16.6133 46.8823 16.5244C46.6623 16.4355 46.3597 16.334 45.9746 16.2197C45.6868 16.1351 45.4202 16.0399 45.1748 15.9341C44.9336 15.8241 44.7241 15.695 44.5464 15.5469C44.3687 15.3988 44.229 15.2253 44.1274 15.0264C44.0259 14.8275 43.9751 14.5926 43.9751 14.3218C43.9751 14.144 44.0153 13.9494 44.0957 13.7378C44.1803 13.5262 44.3221 13.3294 44.521 13.1475C44.7199 12.9655 44.9886 12.8153 45.3271 12.6968C45.6657 12.5741 46.0889 12.5127 46.5967 12.5127C46.8464 12.5127 47.1235 12.5275 47.4282 12.5571C47.7329 12.5825 48.0503 12.6291 48.3804 12.6968V13.6807C48.0334 13.596 47.7033 13.5347 47.3901 13.4966C47.0812 13.4543 46.8125 13.4331 46.584 13.4331C46.3089 13.4331 46.0762 13.4543 45.8857 13.4966C45.6995 13.5389 45.5472 13.5981 45.4287 13.6743C45.3145 13.7463 45.2319 13.833 45.1812 13.9346C45.1304 14.0319 45.105 14.1377 45.105 14.252C45.105 14.3662 45.1261 14.4699 45.1685 14.563C45.215 14.6561 45.2975 14.7471 45.416 14.8359C45.5387 14.9206 45.708 15.0073 45.9238 15.0962C46.1396 15.1808 46.4211 15.2739 46.7681 15.3755C47.1447 15.4855 47.4621 15.6019 47.7202 15.7246C47.9784 15.8431 48.1878 15.9764 48.3486 16.1245C48.5094 16.2726 48.6237 16.4398 48.6914 16.626C48.7633 16.8122 48.7993 17.0238 48.7993 17.2607ZM56.2832 15.4771C56.2832 15.6336 56.2811 15.7648 56.2769 15.8706C56.2726 15.9764 56.2663 16.0758 56.2578 16.1689H51.7827C51.7827 16.8206 51.9647 17.3221 52.3286 17.6733C52.6925 18.0203 53.2173 18.1938 53.9028 18.1938C54.089 18.1938 54.2752 18.1875 54.4614 18.1748C54.6476 18.1579 54.8275 18.1367 55.001 18.1113C55.1745 18.0859 55.3395 18.0584 55.4961 18.0288C55.6569 17.995 55.805 17.959 55.9404 17.9209V18.8286C55.64 18.9132 55.2993 18.981 54.9185 19.0317C54.5418 19.0868 54.1504 19.1143 53.7441 19.1143C53.1982 19.1143 52.7285 19.0402 52.335 18.8921C51.9414 18.744 51.6177 18.5303 51.3638 18.251C51.1141 17.9674 50.9279 17.6226 50.8052 17.2163C50.6867 16.8058 50.6274 16.3424 50.6274 15.8262C50.6274 15.3776 50.6909 14.9544 50.8179 14.5566C50.9491 14.1546 51.1374 13.8034 51.3828 13.5029C51.6325 13.1982 51.9372 12.957 52.2969 12.7793C52.6566 12.6016 53.0649 12.5127 53.522 12.5127C53.9663 12.5127 54.3599 12.5825 54.7026 12.7222C55.0454 12.8618 55.3332 13.0607 55.5659 13.3188C55.8029 13.5728 55.9806 13.8838 56.0991 14.252C56.2218 14.6159 56.2832 15.0243 56.2832 15.4771ZM55.1343 15.3184C55.147 15.0348 55.1195 14.7767 55.0518 14.5439C54.984 14.307 54.8783 14.1038 54.7344 13.9346C54.5947 13.7653 54.4191 13.6341 54.2075 13.541C53.9959 13.4437 53.7505 13.395 53.4712 13.395C53.23 13.395 53.0099 13.4416 52.811 13.5347C52.6121 13.6278 52.4408 13.759 52.2969 13.9282C52.153 14.0975 52.0366 14.3006 51.9478 14.5376C51.8589 14.7746 51.8039 15.0348 51.7827 15.3184H55.1343ZM67.1821 11.6558H65.2715V10.7036H70.2354V11.6558H68.3247V18.0352H70.2354V19H65.2715V18.0352H67.1821V11.6558ZM76.8877 19V14.4233C76.8877 14.2244 76.8792 14.0615 76.8623 13.9346C76.8496 13.8076 76.8263 13.7082 76.7925 13.6362C76.7629 13.5601 76.7227 13.5072 76.6719 13.4775C76.6253 13.4479 76.5661 13.4331 76.4941 13.4331C76.4095 13.4331 76.3312 13.4585 76.2593 13.5093C76.1873 13.5601 76.109 13.6426 76.0244 13.7568C75.944 13.8711 75.853 14.0234 75.7515 14.2139C75.6541 14.4001 75.5378 14.6307 75.4023 14.9058V19H74.3931V14.5439C74.3931 14.3112 74.3846 14.1229 74.3677 13.979C74.355 13.8351 74.3317 13.723 74.2979 13.6426C74.2682 13.5622 74.228 13.5072 74.1772 13.4775C74.1265 13.4479 74.0651 13.4331 73.9932 13.4331C73.917 13.4331 73.8451 13.4543 73.7773 13.4966C73.7096 13.5389 73.6335 13.6151 73.5488 13.7251C73.4684 13.8351 73.3774 13.9854 73.2759 14.1758C73.1743 14.3662 73.0537 14.6095 72.9141 14.9058V19H71.8984V12.627H72.7427L72.7935 13.8394C72.9035 13.5981 73.0093 13.3929 73.1108 13.2236C73.2166 13.0544 73.3245 12.9189 73.4346 12.8174C73.5446 12.7116 73.661 12.6354 73.7837 12.5889C73.9106 12.5381 74.0503 12.5127 74.2026 12.5127C74.5454 12.5127 74.8057 12.6248 74.9834 12.8491C75.1611 13.0734 75.25 13.4204 75.25 13.8901C75.3516 13.6701 75.451 13.4754 75.5483 13.3062C75.6457 13.1326 75.7493 12.9888 75.8594 12.8745C75.9736 12.756 76.0985 12.6672 76.2339 12.6079C76.3693 12.5444 76.5259 12.5127 76.7036 12.5127C77.5034 12.5127 77.9033 13.1284 77.9033 14.3599V19H76.8877ZM83.5845 19L83.5591 18.1431C83.2121 18.4858 82.8587 18.7334 82.499 18.8857C82.1436 19.0381 81.769 19.1143 81.3755 19.1143C81.0116 19.1143 80.7005 19.0677 80.4424 18.9746C80.1842 18.8815 79.9705 18.7546 79.8013 18.5938C79.6362 18.4287 79.5135 18.2362 79.4331 18.0161C79.3569 17.7961 79.3188 17.557 79.3188 17.2988C79.3188 16.6598 79.5558 16.1605 80.0298 15.8008C80.508 15.4368 81.2126 15.2549 82.1436 15.2549H83.4639V14.6963C83.4639 14.3197 83.3433 14.0192 83.1021 13.7949C82.8608 13.5664 82.4927 13.4521 81.9976 13.4521C81.6379 13.4521 81.2824 13.4924 80.9312 13.5728C80.5841 13.6532 80.2244 13.7674 79.8521 13.9155V12.9189C79.9917 12.8682 80.1462 12.8195 80.3154 12.7729C80.4889 12.7222 80.6709 12.6777 80.8613 12.6396C81.0518 12.6016 81.2507 12.5719 81.458 12.5508C81.6654 12.5254 81.8748 12.5127 82.0864 12.5127C82.4715 12.5127 82.8185 12.555 83.1274 12.6396C83.4364 12.7243 83.6966 12.8534 83.9082 13.0269C84.124 13.2004 84.2891 13.4183 84.4033 13.6807C84.5176 13.943 84.5747 14.252 84.5747 14.6074V19H83.5845ZM83.4639 16.0991H82.061C81.786 16.0991 81.549 16.1266 81.3501 16.1816C81.1512 16.2367 80.9883 16.3149 80.8613 16.4165C80.7344 16.5181 80.6392 16.6408 80.5757 16.7847C80.5164 16.9243 80.4868 17.083 80.4868 17.2607C80.4868 17.3835 80.5059 17.502 80.5439 17.6162C80.582 17.7262 80.6434 17.8257 80.728 17.9146C80.8127 17.9992 80.9227 18.0669 81.0581 18.1177C81.1935 18.1685 81.3586 18.1938 81.5532 18.1938C81.8071 18.1938 82.097 18.1177 82.4229 17.9653C82.7529 17.8088 83.0999 17.5633 83.4639 17.229V16.0991ZM91.2271 13.5283C91.3455 13.6764 91.4365 13.8499 91.5 14.0488C91.5677 14.2435 91.6016 14.4551 91.6016 14.6836C91.6016 15.0137 91.5402 15.3162 91.4175 15.5913C91.299 15.8621 91.1297 16.0949 90.9097 16.2896C90.6896 16.4842 90.4251 16.6366 90.1162 16.7466C89.8115 16.8524 89.4751 16.9053 89.1069 16.9053C88.8403 16.9053 88.5907 16.8778 88.3579 16.8228C88.1252 16.7635 87.9411 16.6916 87.8057 16.6069C87.7253 16.7254 87.6576 16.8376 87.6025 16.9434C87.5475 17.0492 87.52 17.1676 87.52 17.2988C87.52 17.4596 87.5962 17.5929 87.7485 17.6987C87.9051 17.8045 88.1104 17.8617 88.3643 17.8701L90.04 17.9336C90.3574 17.9421 90.6494 17.9823 90.916 18.0542C91.1868 18.1261 91.4175 18.2298 91.6079 18.3652C91.8026 18.5007 91.9528 18.6678 92.0586 18.8667C92.1686 19.0656 92.2236 19.2962 92.2236 19.5586C92.2236 19.8421 92.1623 20.1108 92.0396 20.3647C91.9168 20.6187 91.7264 20.8408 91.4683 21.0312C91.2144 21.2259 90.8906 21.3804 90.4971 21.4946C90.1035 21.6089 89.6359 21.666 89.0942 21.666C88.578 21.666 88.1379 21.6237 87.7739 21.5391C87.4142 21.4587 87.118 21.3444 86.8853 21.1963C86.6525 21.0524 86.4832 20.8789 86.3774 20.6758C86.2716 20.4769 86.2188 20.2568 86.2188 20.0156C86.2188 19.7067 86.2907 19.4359 86.4346 19.2031C86.5785 18.9704 86.8006 18.7461 87.1011 18.5303C86.991 18.4795 86.8958 18.416 86.8154 18.3398C86.735 18.2637 86.6694 18.1812 86.6187 18.0923C86.5679 17.9992 86.5298 17.9019 86.5044 17.8003C86.479 17.6987 86.4663 17.5993 86.4663 17.502C86.4663 17.2269 86.5298 16.9751 86.6567 16.7466C86.7879 16.5181 86.9424 16.3022 87.1201 16.0991C87.0397 16.0018 86.9678 15.9066 86.9043 15.8135C86.8451 15.7204 86.7922 15.6209 86.7456 15.5151C86.7033 15.4051 86.6694 15.2887 86.644 15.166C86.6229 15.0391 86.6123 14.8952 86.6123 14.7344C86.6123 14.4043 86.6715 14.1038 86.79 13.833C86.9128 13.5579 87.082 13.3231 87.2979 13.1284C87.5179 12.9338 87.7803 12.7835 88.085 12.6777C88.3939 12.5677 88.7345 12.5127 89.1069 12.5127C89.2635 12.5127 89.4137 12.5233 89.5576 12.5444C89.7015 12.5656 89.8285 12.5931 89.9385 12.627H92.249V13.5283H91.2271ZM87.3931 19.9204C87.3931 20.2209 87.5496 20.4388 87.8628 20.5742C88.1759 20.7139 88.6118 20.7837 89.1704 20.7837C89.5216 20.7837 89.8158 20.752 90.0527 20.6885C90.2939 20.625 90.4865 20.5404 90.6304 20.4346C90.7785 20.333 90.8843 20.2145 90.9478 20.0791C91.0112 19.9479 91.043 19.8125 91.043 19.6729C91.043 19.4147 90.9372 19.2243 90.7256 19.1016C90.514 18.9788 90.1903 18.9069 89.7544 18.8857L88.0913 18.8286C87.9517 18.9217 87.8353 19.0127 87.7422 19.1016C87.6533 19.1904 87.5835 19.2793 87.5327 19.3682C87.4819 19.4613 87.446 19.5522 87.4248 19.6411C87.4036 19.7342 87.3931 19.8273 87.3931 19.9204ZM87.7295 14.709C87.7295 14.9121 87.7633 15.0983 87.8311 15.2676C87.8988 15.4368 87.994 15.5807 88.1167 15.6992C88.2394 15.8177 88.3833 15.9108 88.5483 15.9785C88.7176 16.042 88.9038 16.0737 89.1069 16.0737C89.327 16.0737 89.5216 16.0378 89.6909 15.9658C89.8644 15.8896 90.0083 15.7881 90.1226 15.6611C90.241 15.5342 90.3299 15.3882 90.3892 15.2231C90.4526 15.0581 90.4844 14.8867 90.4844 14.709C90.4844 14.5059 90.4505 14.3197 90.3828 14.1504C90.3151 13.9811 90.2199 13.8372 90.0972 13.7188C89.9744 13.6003 89.8285 13.5093 89.6592 13.4458C89.4941 13.3781 89.3101 13.3442 89.1069 13.3442C88.8869 13.3442 88.6901 13.3823 88.5166 13.4585C88.3473 13.5347 88.2035 13.6362 88.085 13.7632C87.9707 13.8859 87.8818 14.0298 87.8184 14.1948C87.7591 14.3599 87.7295 14.5312 87.7295 14.709ZM99.168 15.4771C99.168 15.6336 99.1659 15.7648 99.1616 15.8706C99.1574 15.9764 99.151 16.0758 99.1426 16.1689H94.6675C94.6675 16.8206 94.8494 17.3221 95.2134 17.6733C95.5773 18.0203 96.1021 18.1938 96.7876 18.1938C96.9738 18.1938 97.16 18.1875 97.3462 18.1748C97.5324 18.1579 97.7122 18.1367 97.8857 18.1113C98.0592 18.0859 98.2243 18.0584 98.3809 18.0288C98.5417 17.995 98.6898 17.959 98.8252 17.9209V18.8286C98.5247 18.9132 98.1841 18.981 97.8032 19.0317C97.4266 19.0868 97.0352 19.1143 96.6289 19.1143C96.083 19.1143 95.6133 19.0402 95.2197 18.8921C94.8262 18.744 94.5024 18.5303 94.2485 18.251C93.9989 17.9674 93.8127 17.6226 93.6899 17.2163C93.5715 16.8058 93.5122 16.3424 93.5122 15.8262C93.5122 15.3776 93.5757 14.9544 93.7026 14.5566C93.8338 14.1546 94.0221 13.8034 94.2676 13.5029C94.5173 13.1982 94.8219 12.957 95.1816 12.7793C95.5413 12.6016 95.9497 12.5127 96.4067 12.5127C96.8511 12.5127 97.2446 12.5825 97.5874 12.7222C97.9302 12.8618 98.2179 13.0607 98.4507 13.3188C98.6877 13.5728 98.8654 13.8838 98.9839 14.252C99.1066 14.6159 99.168 15.0243 99.168 15.4771ZM98.019 15.3184C98.0317 15.0348 98.0042 14.7767 97.9365 14.5439C97.8688 14.307 97.763 14.1038 97.6191 13.9346C97.4795 13.7653 97.3039 13.6341 97.0923 13.541C96.8807 13.4437 96.6353 13.395 96.356 13.395C96.1147 13.395 95.8947 13.4416 95.6958 13.5347C95.4969 13.6278 95.3255 13.759 95.1816 13.9282C95.0378 14.0975 94.9214 14.3006 94.8325 14.5376C94.7437 14.7746 94.6886 15.0348 94.6675 15.3184H98.019ZM105.979 17.2607C105.979 17.485 105.941 17.686 105.865 17.8638C105.789 18.0415 105.685 18.2002 105.554 18.3398C105.423 18.4753 105.27 18.5916 105.097 18.689C104.923 18.7863 104.737 18.8667 104.538 18.9302C104.343 18.9937 104.142 19.0402 103.935 19.0698C103.728 19.0994 103.525 19.1143 103.326 19.1143C102.894 19.1143 102.496 19.0952 102.132 19.0571C101.773 19.019 101.419 18.9577 101.072 18.873V17.8574C101.445 17.9632 101.815 18.0436 102.183 18.0986C102.551 18.1536 102.917 18.1812 103.281 18.1812C103.81 18.1812 104.202 18.1092 104.456 17.9653C104.709 17.8215 104.836 17.6162 104.836 17.3496C104.836 17.2354 104.815 17.1338 104.773 17.0449C104.735 16.9518 104.663 16.8651 104.557 16.7847C104.451 16.7 104.286 16.6133 104.062 16.5244C103.842 16.4355 103.539 16.334 103.154 16.2197C102.867 16.1351 102.6 16.0399 102.354 15.9341C102.113 15.8241 101.904 15.695 101.726 15.5469C101.548 15.3988 101.409 15.2253 101.307 15.0264C101.206 14.8275 101.155 14.5926 101.155 14.3218C101.155 14.144 101.195 13.9494 101.275 13.7378C101.36 13.5262 101.502 13.3294 101.701 13.1475C101.9 12.9655 102.168 12.8153 102.507 12.6968C102.845 12.5741 103.269 12.5127 103.776 12.5127C104.026 12.5127 104.303 12.5275 104.608 12.5571C104.913 12.5825 105.23 12.6291 105.56 12.6968V13.6807C105.213 13.596 104.883 13.5347 104.57 13.4966C104.261 13.4543 103.992 13.4331 103.764 13.4331C103.489 13.4331 103.256 13.4543 103.065 13.4966C102.879 13.5389 102.727 13.5981 102.608 13.6743C102.494 13.7463 102.412 13.833 102.361 13.9346C102.31 14.0319 102.285 14.1377 102.285 14.252C102.285 14.3662 102.306 14.4699 102.348 14.563C102.395 14.6561 102.477 14.7471 102.596 14.8359C102.718 14.9206 102.888 15.0073 103.104 15.0962C103.319 15.1808 103.601 15.2739 103.948 15.3755C104.324 15.4855 104.642 15.6019 104.9 15.7246C105.158 15.8431 105.368 15.9764 105.528 16.1245C105.689 16.2726 105.803 16.4398 105.871 16.626C105.943 16.8122 105.979 17.0238 105.979 17.2607Z" fill="white"/>
<path opacity="0.4" d="M10.9688 28.457C10.9688 28.6654 10.9297 28.8724 10.8516 29.0781C10.7734 29.2812 10.6523 29.4635 10.4883 29.625C10.3242 29.7865 10.1146 29.918 9.85938 30.0195C9.60417 30.1185 9.29948 30.168 8.94531 30.168H8.3125V32H7.61719V26.8945H9.05469C9.30729 26.8945 9.54948 26.9232 9.78125 26.9805C10.013 27.0352 10.2161 27.125 10.3906 27.25C10.5677 27.375 10.7083 27.5365 10.8125 27.7344C10.9167 27.9323 10.9688 28.1732 10.9688 28.457ZM10.2461 28.4883C10.2461 28.1602 10.138 27.9089 9.92188 27.7344C9.70833 27.5599 9.40885 27.4727 9.02344 27.4727H8.3125V29.5742H8.96094C9.3724 29.5742 9.6888 29.4844 9.91016 29.3047C10.1341 29.125 10.2461 28.8529 10.2461 28.4883ZM13.7261 27.4805H12.5503V26.8945H15.605V27.4805H14.4292V31.4062H15.605V32H12.5503V31.4062H13.7261V27.4805ZM20.6436 31.8086C20.2347 31.9779 19.8064 32.0625 19.3584 32.0625C18.6371 32.0625 18.0824 31.8477 17.6944 31.418C17.309 30.9857 17.1163 30.3477 17.1163 29.5039C17.1163 29.0951 17.1696 28.7253 17.2764 28.3945C17.3832 28.0638 17.5355 27.7839 17.7334 27.5547C17.9314 27.3229 18.1709 27.1445 18.4522 27.0195C18.7334 26.8945 19.0485 26.832 19.3975 26.832C19.6345 26.832 19.8545 26.8529 20.0577 26.8945C20.2608 26.9336 20.4561 26.9948 20.6436 27.0781V27.7617C20.4587 27.6602 20.2673 27.5833 20.0694 27.5312C19.8715 27.4766 19.6553 27.4492 19.4209 27.4492C19.1814 27.4492 18.9639 27.4948 18.7686 27.5859C18.5759 27.6745 18.4118 27.8047 18.2764 27.9766C18.141 28.1458 18.0368 28.3542 17.9639 28.6016C17.891 28.8464 17.8545 29.1263 17.8545 29.4414C17.8545 30.1029 17.9886 30.6016 18.2569 30.9375C18.5251 31.2734 18.9183 31.4414 19.4366 31.4414C19.6553 31.4414 19.8649 31.4167 20.0655 31.3672C20.266 31.3151 20.4587 31.2435 20.6436 31.1523V31.8086ZM25.6978 27.4883H24.1861V32H23.483V27.4883H21.9712V26.8945H25.6978V27.4883ZM30.4903 30.2227C30.4903 30.5039 30.4499 30.7591 30.3692 30.9883C30.2911 31.2148 30.1752 31.4089 30.0216 31.5703C29.8679 31.7292 29.6791 31.8529 29.4552 31.9414C29.2338 32.0273 28.9786 32.0703 28.6895 32.0703C28.3718 32.0703 28.1023 32.0286 27.8809 31.9453C27.6596 31.862 27.4786 31.7448 27.338 31.5938C27.1999 31.4401 27.0984 31.2565 27.0333 31.043C26.9708 30.8294 26.9395 30.5911 26.9395 30.3281V26.8945H27.6348V30.2734C27.6348 30.474 27.6531 30.6497 27.6895 30.8008C27.7286 30.9518 27.7911 31.0781 27.877 31.1797C27.963 31.2812 28.0736 31.3581 28.2091 31.4102C28.3471 31.4622 28.5151 31.4883 28.713 31.4883C29.0828 31.4883 29.3549 31.3815 29.5294 31.168C29.7065 30.9544 29.795 30.6536 29.795 30.2656V26.8945H30.4903V30.2227ZM35.4977 32H34.7125L33.9508 30.3672C33.8935 30.2422 33.8349 30.1393 33.775 30.0586C33.7151 29.9753 33.65 29.9102 33.5797 29.8633C33.512 29.8138 33.4365 29.7786 33.3531 29.7578C33.2724 29.737 33.1812 29.7266 33.0797 29.7266H32.7516V32H32.0562V26.8945H33.4234C33.7203 26.8945 33.9755 26.9271 34.1891 26.9922C34.4026 27.0573 34.5771 27.1484 34.7125 27.2656C34.8505 27.3828 34.9508 27.5247 35.0133 27.6914C35.0784 27.8555 35.1109 28.0378 35.1109 28.2383C35.1109 28.3971 35.0875 28.5482 35.0406 28.6914C34.9937 28.832 34.9234 28.9609 34.8297 29.0781C34.7385 29.1927 34.624 29.293 34.4859 29.3789C34.3505 29.4622 34.1943 29.5247 34.0172 29.5664C34.1604 29.6159 34.2815 29.7031 34.3805 29.8281C34.482 29.9505 34.5849 30.1146 34.6891 30.3203L35.4977 32ZM34.3844 28.2969C34.3844 28.0234 34.2984 27.819 34.1266 27.6836C33.9573 27.5482 33.7177 27.4805 33.4078 27.4805H32.7516V29.168H33.3141C33.4781 29.168 33.6253 29.1497 33.7555 29.1133C33.8883 29.0742 34.0003 29.0182 34.0914 28.9453C34.1852 28.8698 34.2568 28.7786 34.3062 28.6719C34.3583 28.5625 34.3844 28.4375 34.3844 28.2969ZM39.9581 32H37.0558V26.8945H39.9581V27.4805H37.7511V29.0625H39.8722V29.6484H37.7511V31.4062H39.9581V32ZM49.9142 31.8086C49.5054 31.9779 49.077 32.0625 48.6291 32.0625C47.9077 32.0625 47.353 31.8477 46.965 31.418C46.5796 30.9857 46.3869 30.3477 46.3869 29.5039C46.3869 29.0951 46.4403 28.7253 46.547 28.3945C46.6538 28.0638 46.8061 27.7839 47.0041 27.5547C47.202 27.3229 47.4416 27.1445 47.7228 27.0195C48.0041 26.8945 48.3192 26.832 48.6681 26.832C48.9051 26.832 49.1252 26.8529 49.3283 26.8945C49.5314 26.9336 49.7267 26.9948 49.9142 27.0781V27.7617C49.7293 27.6602 49.5379 27.5833 49.34 27.5312C49.1421 27.4766 48.9259 27.4492 48.6916 27.4492C48.452 27.4492 48.2345 27.4948 48.0392 27.5859C47.8465 27.6745 47.6824 27.8047 47.547 27.9766C47.4116 28.1458 47.3074 28.3542 47.2345 28.6016C47.1616 28.8464 47.1252 29.1263 47.1252 29.4414C47.1252 30.1029 47.2593 30.6016 47.5275 30.9375C47.7957 31.2734 48.189 31.4414 48.7072 31.4414C48.9259 31.4414 49.1356 31.4167 49.3361 31.3672C49.5366 31.3151 49.7293 31.2435 49.9142 31.1523V31.8086ZM55.0895 29.4141C55.0895 29.8724 55.0348 30.2682 54.9255 30.6016C54.8187 30.9349 54.6729 31.2109 54.488 31.4297C54.3057 31.6458 54.0908 31.8073 53.8434 31.9141C53.5986 32.0182 53.3395 32.0703 53.0661 32.0703C52.738 32.0703 52.4515 32.0117 52.2067 31.8945C51.9645 31.7747 51.7627 31.6029 51.6012 31.3789C51.4424 31.1549 51.3239 30.8828 51.2458 30.5625C51.1677 30.2396 51.1286 29.8763 51.1286 29.4727C51.1286 29.0195 51.182 28.6263 51.2887 28.293C51.3955 27.9596 51.5401 27.6849 51.7223 27.4688C51.9072 27.25 52.1221 27.0885 52.3669 26.9844C52.6117 26.8776 52.8708 26.8242 53.1442 26.8242C53.4723 26.8242 53.7575 26.8841 53.9997 27.0039C54.2445 27.1237 54.4476 27.2956 54.6091 27.5195C54.7705 27.7409 54.8903 28.0117 54.9684 28.332C55.0492 28.6523 55.0895 29.013 55.0895 29.4141ZM54.3669 29.4648C54.3669 29.1654 54.3434 28.8919 54.2966 28.6445C54.2523 28.3945 54.1794 28.1797 54.0778 28C53.9762 27.8203 53.8447 27.681 53.6833 27.582C53.5244 27.4831 53.3317 27.4336 53.1052 27.4336C52.8864 27.4336 52.6976 27.487 52.5387 27.5938C52.3825 27.6979 52.2536 27.8411 52.152 28.0234C52.0505 28.2031 51.9749 28.4154 51.9255 28.6602C51.876 28.9023 51.8512 29.1602 51.8512 29.4336C51.8512 29.7357 51.8747 30.0117 51.9216 30.2617C51.9684 30.5091 52.0414 30.7227 52.1403 30.9023C52.2419 31.0794 52.3721 31.2174 52.5309 31.3164C52.6898 31.4154 52.8812 31.4648 53.1052 31.4648C53.3239 31.4648 53.5127 31.4128 53.6716 31.3086C53.8304 31.2018 53.9606 31.0586 54.0622 30.8789C54.1664 30.6966 54.2432 30.4844 54.2927 30.2422C54.3421 30 54.3669 29.7409 54.3669 29.4648ZM59.9914 32H59.3117L59.2102 28.8164L59.1672 27.5938L58.9289 28.3047L58.175 30.3359H57.6945L56.9758 28.3828L56.7375 27.5938L56.7219 28.8711L56.632 32H55.9758L56.2258 26.8945H57.05L57.7375 28.8164L57.9602 29.4648L58.175 28.8164L58.8977 26.8945H59.7453L59.9914 32ZM64.6316 28.457C64.6316 28.6654 64.5925 28.8724 64.5144 29.0781C64.4362 29.2812 64.3152 29.4635 64.1511 29.625C63.987 29.7865 63.7774 29.918 63.5222 30.0195C63.267 30.1185 62.9623 30.168 62.6081 30.168H61.9753V32H61.28V26.8945H62.7175C62.9701 26.8945 63.2123 26.9232 63.4441 26.9805C63.6758 27.0352 63.879 27.125 64.0534 27.25C64.2305 27.375 64.3711 27.5365 64.4753 27.7344C64.5795 27.9323 64.6316 28.1732 64.6316 28.457ZM63.9089 28.4883C63.9089 28.1602 63.8008 27.9089 63.5847 27.7344C63.3711 27.5599 63.0717 27.4727 62.6862 27.4727H61.9753V29.5742H62.6237C63.0352 29.5742 63.3516 29.4844 63.573 29.3047C63.7969 29.125 63.9089 28.8529 63.9089 28.4883ZM69.7248 29.4141C69.7248 29.8724 69.6702 30.2682 69.5608 30.6016C69.454 30.9349 69.3082 31.2109 69.1233 31.4297C68.941 31.6458 68.7261 31.8073 68.4787 31.9141C68.234 32.0182 67.9748 32.0703 67.7014 32.0703C67.3733 32.0703 67.0868 32.0117 66.842 31.8945C66.5998 31.7747 66.398 31.6029 66.2366 31.3789C66.0777 31.1549 65.9592 30.8828 65.8811 30.5625C65.803 30.2396 65.7639 29.8763 65.7639 29.4727C65.7639 29.0195 65.8173 28.6263 65.9241 28.293C66.0308 27.9596 66.1754 27.6849 66.3577 27.4688C66.5426 27.25 66.7574 27.0885 67.0022 26.9844C67.247 26.8776 67.5061 26.8242 67.7795 26.8242C68.1077 26.8242 68.3928 26.8841 68.635 27.0039C68.8798 27.1237 69.0829 27.2956 69.2444 27.5195C69.4058 27.7409 69.5256 28.0117 69.6037 28.332C69.6845 28.6523 69.7248 29.013 69.7248 29.4141ZM69.0022 29.4648C69.0022 29.1654 68.9787 28.8919 68.9319 28.6445C68.8876 28.3945 68.8147 28.1797 68.7131 28C68.6116 27.8203 68.4801 27.681 68.3186 27.582C68.1597 27.4831 67.967 27.4336 67.7405 27.4336C67.5217 27.4336 67.3329 27.487 67.1741 27.5938C67.0178 27.6979 66.8889 27.8411 66.7873 28.0234C66.6858 28.2031 66.6103 28.4154 66.5608 28.6602C66.5113 28.9023 66.4866 29.1602 66.4866 29.4336C66.4866 29.7357 66.51 30.0117 66.5569 30.2617C66.6037 30.5091 66.6767 30.7227 66.7756 30.9023C66.8772 31.0794 67.0074 31.2174 67.1662 31.3164C67.3251 31.4154 67.5165 31.4648 67.7405 31.4648C67.9592 31.4648 68.148 31.4128 68.3069 31.3086C68.4657 31.2018 68.5959 31.0586 68.6975 30.8789C68.8017 30.6966 68.8785 30.4844 68.928 30.2422C68.9774 30 69.0022 29.7409 69.0022 29.4648ZM74.3142 30.6172C74.3142 30.8594 74.2647 31.0716 74.1658 31.2539C74.0668 31.4362 73.9288 31.5885 73.7517 31.7109C73.5746 31.8307 73.3611 31.9206 73.1111 31.9805C72.8637 32.0404 72.5903 32.0703 72.2908 32.0703C72.1554 32.0703 72.0199 32.0651 71.8845 32.0547C71.7517 32.0443 71.6228 32.0312 71.4978 32.0156C71.3754 32 71.2595 31.9818 71.1502 31.9609C71.0408 31.9401 70.9418 31.918 70.8533 31.8945V31.2227C71.0486 31.2956 71.2673 31.3529 71.5095 31.3945C71.7543 31.4362 72.0317 31.457 72.3416 31.457C72.5655 31.457 72.7556 31.4401 72.9119 31.4062C73.0707 31.3698 73.1996 31.3177 73.2986 31.25C73.4002 31.1797 73.4731 31.0951 73.5173 30.9961C73.5642 30.8971 73.5877 30.7839 73.5877 30.6562C73.5877 30.5182 73.5486 30.401 73.4705 30.3047C73.3949 30.2057 73.2947 30.1185 73.1697 30.043C73.0447 29.9648 72.9015 29.8945 72.74 29.832C72.5811 29.7669 72.4184 29.7005 72.2517 29.6328C72.0851 29.5651 71.921 29.4922 71.7595 29.4141C71.6007 29.3333 71.4588 29.2396 71.3338 29.1328C71.2088 29.0234 71.1072 28.8958 71.0291 28.75C70.9535 28.6042 70.9158 28.431 70.9158 28.2305C70.9158 28.056 70.9522 27.8841 71.0252 27.7148C71.0981 27.5456 71.2114 27.3958 71.365 27.2656C71.5186 27.1328 71.7153 27.026 71.9548 26.9453C72.197 26.8646 72.4848 26.8242 72.8181 26.8242C72.9041 26.8242 72.9965 26.8281 73.0955 26.8359C73.197 26.8438 73.2986 26.8555 73.4002 26.8711C73.5043 26.8841 73.6059 26.8997 73.7048 26.918C73.8064 26.9362 73.9002 26.9557 73.9861 26.9766V27.6016C73.7856 27.5443 73.5851 27.5013 73.3845 27.4727C73.184 27.4414 72.99 27.4258 72.8025 27.4258C72.4041 27.4258 72.1111 27.4922 71.9236 27.625C71.7361 27.7578 71.6423 27.9362 71.6423 28.1602C71.6423 28.2982 71.6801 28.4167 71.7556 28.5156C71.8338 28.6146 71.9353 28.7031 72.0603 28.7812C72.1853 28.8594 72.3272 28.931 72.4861 28.9961C72.6476 29.0586 72.8116 29.1237 72.9783 29.1914C73.1449 29.2591 73.3077 29.3333 73.4666 29.4141C73.628 29.4948 73.7713 29.5911 73.8963 29.7031C74.0213 29.8125 74.1215 29.9414 74.197 30.0898C74.2752 30.2383 74.3142 30.4141 74.3142 30.6172ZM78.9856 32H76.0833V26.8945H78.9856V27.4805H76.7786V29.0625H78.8997V29.6484H76.7786V31.4062H78.9856V32ZM84.282 32H83.4969L82.7352 30.3672C82.6779 30.2422 82.6193 30.1393 82.5594 30.0586C82.4995 29.9753 82.4344 29.9102 82.3641 29.8633C82.2964 29.8138 82.2208 29.7786 82.1375 29.7578C82.0568 29.737 81.9656 29.7266 81.8641 29.7266H81.5359V32H80.8406V26.8945H82.2078C82.5047 26.8945 82.7599 26.9271 82.9734 26.9922C83.187 27.0573 83.3615 27.1484 83.4969 27.2656C83.6349 27.3828 83.7352 27.5247 83.7977 27.6914C83.8628 27.8555 83.8953 28.0378 83.8953 28.2383C83.8953 28.3971 83.8719 28.5482 83.825 28.6914C83.7781 28.832 83.7078 28.9609 83.6141 29.0781C83.5229 29.1927 83.4083 29.293 83.2703 29.3789C83.1349 29.4622 82.9786 29.5247 82.8016 29.5664C82.9448 29.6159 83.0659 29.7031 83.1648 29.8281C83.2664 29.9505 83.3693 30.1146 83.4734 30.3203L84.282 32ZM83.1687 28.2969C83.1687 28.0234 83.0828 27.819 82.9109 27.6836C82.7417 27.5482 82.5021 27.4805 82.1922 27.4805H81.5359V29.168H82.0984C82.2625 29.168 82.4096 29.1497 82.5398 29.1133C82.6727 29.0742 82.7846 29.0182 82.8758 28.9453C82.9695 28.8698 83.0411 28.7786 83.0906 28.6719C83.1427 28.5625 83.1687 28.4375 83.1687 28.2969Z" fill="white"/>
</svg>
